# xmcd
#
# Track frame offsets:
#	150
#	12922
#	29435
#	44460
#	56562
#	69457
#	81357
#	93585
#	108915
#	125712
#	145955
#	161495
#	172737
#	185427
#
# Disc length: 2670 seconds
#
# Revision: 3
# Processed by: cddbd v1.5.2PL0 Copyright (c) Steve Scherf et al.
# Submitted via: EZCDAudioConverter 1.3.4.1
#
DISCID=bc0a6c0e
DTITLE=The Who - My Generation 2/2
DYEAR=1965
DGENRE=
TTITLE0=Leaving Here [Alternate]
TTITLE1=Lubie (Come Back Home)
TTITLE2=Shout And Shimmy
TTITLE3=(Love Is Like A) Heat Wave
TTITLE4=Motoring
TTITLE5=Anytime You Want Me
TTITLE6=Anyway Anyhow Anywhere [Alternate]
TTITLE7=Instant Party Mixture
TTITLE8=I Don't Mind [Full Length Version]
TTITLE9=The Good's Gone [Full Length Version]
TTITLE10=My Generation [Instrumental]
TTITLE11=Anytime You Want Me [A Cappella]
TTITLE12=A Legal Matter [Monaural Version With Guitar Overdubs]
TTITLE13=My Generation [Monaural Version With Guitar Overdubs]
EXTD=
EXTT0=
EXTT1=
EXTT2=
EXTT3=
EXTT4=
EXTT5=
EXTT6=
EXTT7=
EXTT8=
EXTT9=
EXTT10=
EXTT11=
EXTT12=
EXTT13=
PLAYORDER=
